<svg width="141" height="20" viewBox="0 0 141 20" fill="none" xmlns="http://www.w3.org/2000/svg">
<path d="M17.908 9.78C18.636 10.004 19.2613 10.4987 19.784 11.264C20.3067 12.0107 20.568 12.8693 20.568 13.84C20.568 15.912 19.896 17.4613 18.552 18.488C17.208 19.496 15.248 20 12.672 20H1.136C0.930667 20 0.753333 19.9253 0.604 19.776C0.454667 19.6267 0.38 19.4493 0.38 19.244V1.156C0.38 0.950666 0.454667 0.773333 0.604 0.623999C0.753333 0.474665 0.930667 0.399999 1.136 0.399999H12.392C15.0427 0.399999 16.9933 0.885332 18.244 1.856C19.5133 2.808 20.148 4.25467 20.148 6.196V6.28C20.148 7.176 19.9053 7.94133 19.42 8.576C18.9347 9.21067 18.4307 9.612 17.908 9.78ZM12.56 6.448C12.56 6.112 12.4573 5.82267 12.252 5.58C12.0653 5.33733 11.7853 5.216 11.412 5.216H7.66V7.764H11.412C11.7853 7.764 12.0653 7.63333 12.252 7.372C12.4573 7.092 12.56 6.784 12.56 6.448ZM11.72 15.184C12.1493 15.184 12.4667 15.044 12.672 14.764C12.896 14.4653 13.008 14.1387 13.008 13.784V13.756C13.008 13.4013 12.8867 13.0933 12.644 12.832C12.42 12.5707 12.112 12.44 11.72 12.44H7.66V15.184H11.72ZM43.0411 14.54C43.2464 14.54 43.4237 14.6147 43.5731 14.764C43.7224 14.9133 43.7971 15.0907 43.7971 15.296V19.244C43.7971 19.4493 43.7224 19.6267 43.5731 19.776C43.4237 19.9253 43.2464 20 43.0411 20H25.3451C25.1397 20 24.9624 19.9253 24.8131 19.776C24.6637 19.6267 24.5891 19.4493 24.5891 19.244V1.156C24.5891 0.950666 24.6637 0.773333 24.8131 0.623999C24.9624 0.474665 25.1397 0.399999 25.3451 0.399999H42.7611C42.9664 0.399999 43.1437 0.474665 43.2931 0.623999C43.4424 0.773333 43.5171 0.950666 43.5171 1.156V5.104C43.5171 5.30933 43.4424 5.48667 43.2931 5.636C43.1437 5.78533 42.9664 5.86 42.7611 5.86H31.8691V7.624H41.2211C41.4264 7.624 41.6037 7.69867 41.7531 7.848C41.9024 7.99733 41.9771 8.17467 41.9771 8.38V12.02C41.9771 12.2253 41.9024 12.4027 41.7531 12.552C41.6037 12.7013 41.4264 12.776 41.2211 12.776H31.8691V14.54H43.0411ZM61.7061 1.156C61.9861 0.651999 62.3875 0.399999 62.9101 0.399999H68.0341C68.2395 0.399999 68.4168 0.474665 68.5661 0.623999C68.7155 0.773333 68.7901 0.950666 68.7901 1.156V19.244C68.7901 19.4493 68.7155 19.6267 68.5661 19.776C68.4168 19.9253 68.2395 20 68.0341 20H62.9661C62.7608 20 62.5835 19.9253 62.4341 19.776C62.2848 19.6267 62.2101 19.4493 62.2101 19.244V10.564L60.1661 14.596C60.1101 14.7267 59.9795 14.876 59.7741 15.044C59.5688 15.212 59.3075 15.296 58.9901 15.296H57.0861C56.7688 15.296 56.5075 15.212 56.3021 15.044C56.0968 14.876 55.9661 14.7267 55.9101 14.596L53.8661 10.564V19.244C53.8661 19.4493 53.7915 19.6267 53.6421 19.776C53.4928 19.9253 53.3155 20 53.1101 20H48.0421C47.8368 20 47.6595 19.9253 47.5101 19.776C47.3608 19.6267 47.2861 19.4493 47.2861 19.244V1.156C47.2861 0.950666 47.3608 0.773333 47.5101 0.623999C47.6595 0.474665 47.8368 0.399999 48.0421 0.399999H53.1661C53.6888 0.399999 54.0901 0.651999 54.3701 1.156L58.0381 7.876L61.7061 1.156ZM85.9152 14.26H90.9832C91.1885 14.26 91.3659 14.3347 91.5152 14.484C91.6645 14.6333 91.7392 14.8107 91.7392 15.016V19.244C91.7392 19.4493 91.6645 19.6267 91.5152 19.776C91.3659 19.9253 91.1885 20 90.9832 20H73.2312C73.0259 20 72.8485 19.9253 72.6992 19.776C72.5499 19.6267 72.4752 19.4493 72.4752 19.244V15.016C72.4752 14.8107 72.5499 14.6333 72.6992 14.484C72.8485 14.3347 73.0259 14.26 73.2312 14.26H78.3552V6.14H73.2312C73.0259 6.14 72.8485 6.06533 72.6992 5.916C72.5499 5.76667 72.4752 5.58933 72.4752 5.384V1.156C72.4752 0.950666 72.5499 0.773333 72.6992 0.623999C72.8485 0.474665 73.0259 0.399999 73.2312 0.399999H90.9832C91.1885 0.399999 91.3659 0.474665 91.5152 0.623999C91.6645 0.773333 91.7392 0.950666 91.7392 1.156V5.384C91.7392 5.58933 91.6645 5.76667 91.5152 5.916C91.3659 6.06533 91.1885 6.14 90.9832 6.14H85.9152V14.26ZM114.94 0.399999C115.146 0.399999 115.323 0.474665 115.472 0.623999C115.622 0.773333 115.696 0.950666 115.696 1.156V19.244C115.696 19.4493 115.622 19.6267 115.472 19.776C115.323 19.9253 115.146 20 114.94 20H110.432C109.984 20 109.611 19.804 109.312 19.412L103.208 11.628V19.244C103.208 19.4493 103.134 19.6267 102.984 19.776C102.835 19.9253 102.658 20 102.452 20H97.2443C97.0389 20 96.8616 19.9253 96.7123 19.776C96.5629 19.6267 96.4883 19.4493 96.4883 19.244V1.156C96.4883 0.950666 96.5629 0.773333 96.7123 0.623999C96.8616 0.474665 97.0389 0.399999 97.2443 0.399999H101.78C102.228 0.399999 102.592 0.586666 102.872 0.96L108.976 9.388V1.156C108.976 0.950666 109.051 0.773333 109.2 0.623999C109.35 0.474665 109.527 0.399999 109.732 0.399999H114.94ZM139.317 14.54C139.523 14.54 139.7 14.6147 139.849 14.764C139.999 14.9133 140.073 15.0907 140.073 15.296V19.244C140.073 19.4493 139.999 19.6267 139.849 19.776C139.7 19.9253 139.523 20 139.317 20H121.621C121.416 20 121.239 19.9253 121.089 19.776C120.94 19.6267 120.865 19.4493 120.865 19.244V1.156C120.865 0.950666 120.94 0.773333 121.089 0.623999C121.239 0.474665 121.416 0.399999 121.621 0.399999H139.037C139.243 0.399999 139.42 0.474665 139.569 0.623999C139.719 0.773333 139.793 0.950666 139.793 1.156V5.104C139.793 5.30933 139.719 5.48667 139.569 5.636C139.42 5.78533 139.243 5.86 139.037 5.86H128.145V7.624H137.497C137.703 7.624 137.88 7.69867 138.029 7.848C138.179 7.99733 138.253 8.17467 138.253 8.38V12.02C138.253 12.2253 138.179 12.4027 138.029 12.552C137.88 12.7013 137.703 12.776 137.497 12.776H128.145V14.54H139.317Z" fill="black"/>
</svg>
