<svg width="141" height="20" viewBox="0 0 141 20" fill="none" xmlns="http://www.w3.org/2000/svg">
<path d="M18.1014 9.74777C18.8294 9.97177 19.4547 10.4664 19.9774 11.2318C20.5 11.9784 20.7614 12.8371 20.7614 13.8078C20.7614 15.8798 20.0894 17.4291 18.7454 18.4558C17.4014 19.4638 15.4414 19.9678 12.8654 19.9678H1.32936C1.12403 19.9678 0.946693 19.8931 0.797359 19.7438C0.648026 19.5944 0.573359 19.4171 0.573359 19.2118V1.12377C0.573359 0.918439 0.648026 0.741106 0.797359 0.591773C0.946693 0.442439 1.12403 0.367772 1.32936 0.367772H12.5854C15.236 0.367772 17.1867 0.853106 18.4374 1.82377C19.7067 2.77577 20.3414 4.22244 20.3414 6.16377V6.24777C20.3414 7.14377 20.0987 7.90911 19.6134 8.54377C19.128 9.17844 18.624 9.57977 18.1014 9.74777ZM12.7534 6.41577C12.7534 6.07977 12.6507 5.79044 12.4454 5.54777C12.2587 5.30511 11.9787 5.18377 11.6054 5.18377H7.85336V7.73177H11.6054C11.9787 7.73177 12.2587 7.60111 12.4454 7.33977C12.6507 7.05977 12.7534 6.75177 12.7534 6.41577ZM11.9134 15.1518C12.3427 15.1518 12.66 15.0118 12.8654 14.7318C13.0894 14.4331 13.2014 14.1064 13.2014 13.7518V13.7238C13.2014 13.3691 13.08 13.0611 12.8374 12.7998C12.6134 12.5384 12.3054 12.4078 11.9134 12.4078H7.85336V15.1518H11.9134ZM43.2344 14.5078C43.4398 14.5078 43.6171 14.5824 43.7664 14.7318C43.9158 14.8811 43.9904 15.0584 43.9904 15.2638V19.2118C43.9904 19.4171 43.9158 19.5944 43.7664 19.7438C43.6171 19.8931 43.4398 19.9678 43.2344 19.9678H25.5384C25.3331 19.9678 25.1558 19.8931 25.0064 19.7438C24.8571 19.5944 24.7824 19.4171 24.7824 19.2118V1.12377C24.7824 0.918439 24.8571 0.741106 25.0064 0.591773C25.1558 0.442439 25.3331 0.367772 25.5384 0.367772H42.9544C43.1598 0.367772 43.3371 0.442439 43.4864 0.591773C43.6358 0.741106 43.7104 0.918439 43.7104 1.12377V5.07177C43.7104 5.27711 43.6358 5.45444 43.4864 5.60377C43.3371 5.75311 43.1598 5.82777 42.9544 5.82777H32.0624V7.59177H41.4144C41.6198 7.59177 41.7971 7.66644 41.9464 7.81577C42.0958 7.96511 42.1704 8.14244 42.1704 8.34777V11.9878C42.1704 12.1931 42.0958 12.3704 41.9464 12.5198C41.7971 12.6691 41.6198 12.7438 41.4144 12.7438H32.0624V14.5078H43.2344ZM61.8995 1.12377C62.1795 0.619772 62.5808 0.367772 63.1035 0.367772H68.2275C68.4328 0.367772 68.6102 0.442439 68.7595 0.591773C68.9088 0.741106 68.9835 0.918439 68.9835 1.12377V19.2118C68.9835 19.4171 68.9088 19.5944 68.7595 19.7438C68.6102 19.8931 68.4328 19.9678 68.2275 19.9678H63.1595C62.9542 19.9678 62.7768 19.8931 62.6275 19.7438C62.4782 19.5944 62.4035 19.4171 62.4035 19.2118V10.5318L60.3595 14.5638C60.3035 14.6944 60.1728 14.8438 59.9675 15.0118C59.7622 15.1798 59.5008 15.2638 59.1835 15.2638H57.2795C56.9622 15.2638 56.7008 15.1798 56.4955 15.0118C56.2902 14.8438 56.1595 14.6944 56.1035 14.5638L54.0595 10.5318V19.2118C54.0595 19.4171 53.9848 19.5944 53.8355 19.7438C53.6862 19.8931 53.5088 19.9678 53.3035 19.9678H48.2355C48.0302 19.9678 47.8528 19.8931 47.7035 19.7438C47.5542 19.5944 47.4795 19.4171 47.4795 19.2118V1.12377C47.4795 0.918439 47.5542 0.741106 47.7035 0.591773C47.8528 0.442439 48.0302 0.367772 48.2355 0.367772H53.3595C53.8822 0.367772 54.2835 0.619772 54.5635 1.12377L58.2315 7.84377L61.8995 1.12377ZM86.1085 14.2278H91.1765C91.3819 14.2278 91.5592 14.3024 91.7085 14.4518C91.8579 14.6011 91.9325 14.7784 91.9325 14.9838V19.2118C91.9325 19.4171 91.8579 19.5944 91.7085 19.7438C91.5592 19.8931 91.3819 19.9678 91.1765 19.9678H73.4245C73.2192 19.9678 73.0419 19.8931 72.8925 19.7438C72.7432 19.5944 72.6685 19.4171 72.6685 19.2118V14.9838C72.6685 14.7784 72.7432 14.6011 72.8925 14.4518C73.0419 14.3024 73.2192 14.2278 73.4245 14.2278H78.5485V6.10777H73.4245C73.2192 6.10777 73.0419 6.03311 72.8925 5.88377C72.7432 5.73444 72.6685 5.55711 72.6685 5.35177V1.12377C72.6685 0.918439 72.7432 0.741106 72.8925 0.591773C73.0419 0.442439 73.2192 0.367772 73.4245 0.367772H91.1765C91.3819 0.367772 91.5592 0.442439 91.7085 0.591773C91.8579 0.741106 91.9325 0.918439 91.9325 1.12377V5.35177C91.9325 5.55711 91.8579 5.73444 91.7085 5.88377C91.5592 6.03311 91.3819 6.10777 91.1765 6.10777H86.1085V14.2278ZM115.134 0.367772C115.339 0.367772 115.516 0.442439 115.666 0.591773C115.815 0.741106 115.89 0.918439 115.89 1.12377V19.2118C115.89 19.4171 115.815 19.5944 115.666 19.7438C115.516 19.8931 115.339 19.9678 115.134 19.9678H110.626C110.178 19.9678 109.804 19.7718 109.506 19.3798L103.402 11.5958V19.2118C103.402 19.4171 103.327 19.5944 103.178 19.7438C103.028 19.8931 102.851 19.9678 102.646 19.9678H97.4376C97.2323 19.9678 97.0549 19.8931 96.9056 19.7438C96.7563 19.5944 96.6816 19.4171 96.6816 19.2118V1.12377C96.6816 0.918439 96.7563 0.741106 96.9056 0.591773C97.0549 0.442439 97.2323 0.367772 97.4376 0.367772H101.974C102.422 0.367772 102.786 0.554439 103.066 0.927773L109.17 9.35577V1.12377C109.17 0.918439 109.244 0.741106 109.394 0.591773C109.543 0.442439 109.72 0.367772 109.926 0.367772H115.134ZM139.511 14.5078C139.716 14.5078 139.893 14.5824 140.043 14.7318C140.192 14.8811 140.267 15.0584 140.267 15.2638V19.2118C140.267 19.4171 140.192 19.5944 140.043 19.7438C139.893 19.8931 139.716 19.9678 139.511 19.9678H121.815C121.609 19.9678 121.432 19.8931 121.283 19.7438C121.133 19.5944 121.059 19.4171 121.059 19.2118V1.12377C121.059 0.918439 121.133 0.741106 121.283 0.591773C121.432 0.442439 121.609 0.367772 121.815 0.367772H139.231C139.436 0.367772 139.613 0.442439 139.763 0.591773C139.912 0.741106 139.987 0.918439 139.987 1.12377V5.07177C139.987 5.27711 139.912 5.45444 139.763 5.60377C139.613 5.75311 139.436 5.82777 139.231 5.82777H128.339V7.59177H137.691C137.896 7.59177 138.073 7.66644 138.223 7.81577C138.372 7.96511 138.447 8.14244 138.447 8.34777V11.9878C138.447 12.1931 138.372 12.3704 138.223 12.5198C138.073 12.6691 137.896 12.7438 137.691 12.7438H128.339V14.5078H139.511Z" fill="black"/>
</svg>
